<?xml version="1.0" encoding="utf-8"?>
<!-- Generator: Adobe Illustrator 19.1.0, SVG Export Plug-In . SVG Version: 6.00 Build 0)  -->
<!DOCTYPE svg PUBLIC "-//W3C//DTD SVG 1.1//EN" "http://www.w3.org/Graphics/SVG/1.1/DTD/svg11.dtd">
<svg version="1.1" xmlns="http://www.w3.org/2000/svg" xmlns:xlink="http://www.w3.org/1999/xlink" x="0px" y="0px"
	 viewBox="0 0 250 250" style="enable-background:new 0 0 250 250;" xml:space="preserve">
<style type="text/css">
	.st0{fill:#61AA7B;}
	.st1{fill:#5EA4BC;}
	.st2{fill:#567EB7;}
	.st3{fill:#906FA8;}
	.st4{fill:#B57499;}
	.st5{fill:#E8675C;}
	.st6{fill:#B2BA49;}
	.st7{fill:#E5C333;}
	.st8{fill:#7C7F7F;}
	.st9{fill:#F28F4C;}
	.st10{fill:#333333;}
</style>
<g id="Layer_1">
	<g id="icons">
		<g>
			<path class="st2" d="M61.9,163.5c-1.1,2.3-2.1,5.1-3,8.2C73.6,192.4,97.7,206,125,206c27.4,0,51.6-13.7,66.3-34.5
				c-0.9-3.1-1.9-5.8-3-8c-5.9-11.9-22.4-13.4-34.3-17.9c-4,15.9-10.8,40.9-18.1,55.6l-6.6-36l1.6-6.5l-5.8-3.9l-5.8,3.9l1.6,6.5
				l-6.6,36c-7.3-14.7-14.1-39.7-18.1-55.6C84.3,150.1,67.8,151.5,61.9,163.5z"/>
			<path class="st2" d="M125,137.3c10.2,0,18.7-8.1,24.8-18.8c6.3-11,13.4-36,10.8-47.9C157,54.1,141,44,125,44
				c-16,0-32,10.1-35.6,26.7c-2.6,11.8,4.6,36.9,10.8,47.9C106.3,129.2,114.8,137.3,125,137.3z"/>
			<path class="st2" d="M38.6,181.6c0.4,0.5,0.8,0.9,1.2,1.3c0.4,0.4,0.8,0.6,1.3,0.8c0.4,0.2,0.9,0.1,1.3-0.2
				c0.3-0.2,0.5-0.4,0.6-0.6c0.1-0.2,0.2-0.5,0.2-0.8c0-0.3,0-0.6-0.2-0.8c-0.1-0.3-0.2-0.5-0.4-0.8c-0.7-1-1.4-1.6-2.2-1.7
				c-0.8-0.2-1.6,0-2.4,0.6l-0.7,0.4l0.4,0.6C37.9,180.7,38.3,181.2,38.6,181.6z"/>
			<path class="st2" d="M45.9,198.9c0.4,0.5,0.9,0.8,1.4,1c0.5,0.2,1,0.3,1.6,0.3c0.5,0,1-0.1,1.5-0.3c0.5-0.2,0.9-0.5,1.3-0.9
				c0.4-0.4,0.7-0.8,1-1.3c0.2-0.5,0.4-1,0.4-1.5c0-0.5,0-1-0.2-1.6c-0.2-0.5-0.5-1-0.9-1.5c-0.4-0.5-0.9-0.8-1.4-1
				c-0.5-0.2-1-0.3-1.6-0.3c-0.5,0-1,0.1-1.5,0.3c-0.5,0.2-0.9,0.5-1.3,0.9c-0.4,0.4-0.7,0.8-1,1.3c-0.2,0.5-0.4,1-0.4,1.5
				c0,0.5,0,1.1,0.2,1.6C45.2,198,45.5,198.5,45.9,198.9z"/>
			<path class="st2" d="M216.2,67.2c-0.4-0.3-0.9-0.5-1.4-0.7c-0.5-0.1-1-0.1-1.6,0c-0.5,0.1-1.1,0.3-1.6,0.6
				c-0.5,0.3-0.9,0.7-1.2,1.1c-0.3,0.4-0.5,0.9-0.6,1.4c-0.1,0.5-0.1,1-0.1,1.6c0.1,0.5,0.3,1.1,0.6,1.6c0.3,0.5,0.7,1,1.2,1.3
				c0.4,0.3,0.9,0.5,1.4,0.7c0.5,0.1,1,0.1,1.5,0c0.5-0.1,1-0.3,1.5-0.6c1-0.6,1.7-1.5,2-2.5c0.3-1,0.1-2.1-0.6-3.2
				C217,67.9,216.6,67.5,216.2,67.2z"/>
			<path class="st2" d="M74.4,215.1c0.5,0.3,1.1,0.5,1.6,0.6c0.5,0.1,1,0.2,1.5,0.1c0.5-0.1,0.8-0.3,1.1-0.8
				c0.2-0.3,0.2-0.6,0.2-0.8c0-0.3-0.1-0.5-0.2-0.8c-0.1-0.2-0.3-0.5-0.5-0.7c-0.2-0.2-0.5-0.4-0.7-0.5c-1-0.6-2-0.8-2.7-0.5
				c-0.8,0.2-1.4,0.8-1.9,1.6l-0.4,0.7l0.6,0.4C73.4,214.6,73.9,214.8,74.4,215.1z"/>
			<path class="st2" d="M152.8,222.3c-0.4-0.3-0.9-0.5-1.5-0.6c-0.5-0.1-1.1-0.1-1.7,0.1c-0.6,0.2-1.1,0.4-1.6,0.8
				c-0.4,0.3-0.8,0.8-1,1.2c-0.3,0.5-0.4,1-0.5,1.5c-0.1,0.5,0,1.1,0.1,1.6c0.1,0.5,0.4,1,0.7,1.4c0.3,0.4,0.7,0.8,1.1,1.1
				c0.4,0.3,0.9,0.5,1.5,0.6c0.5,0.1,1.1,0.1,1.7-0.1c0.6-0.2,1.1-0.4,1.6-0.8c0.4-0.3,0.8-0.8,1-1.2c0.3-0.5,0.4-1,0.5-1.5
				c0.1-0.5,0-1.1-0.1-1.6c-0.1-0.5-0.4-1-0.7-1.4C153.6,223,153.3,222.6,152.8,222.3z"/>
			<path class="st2" d="M170.9,35.2c1,0.2,2,0.3,2.9,0.1c0.9-0.2,1.8-0.5,2.6-1.1c0.8-0.6,1.5-1.4,2-2.6c0.6-1.1,0.9-2.1,0.9-3.1
				c0.1-1-0.1-1.9-0.5-2.7c-0.4-0.8-0.9-1.5-1.6-2.2c-0.7-0.7-1.6-1.2-2.6-1.7l-3-1.5l-6.2,12.4l2.4,1.2
				C168.9,34.6,169.9,35,170.9,35.2z"/>
			<path class="st2" d="M30.4,78.1l3.4-6.3c-0.9-0.5-1.8-0.6-2.6-0.3c-0.8,0.3-1.5,0.9-2,1.9c-0.5,0.9-0.6,1.8-0.4,2.6
				C29.1,76.8,29.6,77.5,30.4,78.1z"/>
			<path class="st2" d="M63.2,42.5c-0.3,0.4-0.6,0.9-0.7,1.3c-0.1,0.4,0,0.9,0.2,1.3c0.2,0.3,0.4,0.4,0.7,0.5
				c0.2,0.1,0.5,0.1,0.8,0.1c0.3,0,0.6-0.1,0.8-0.2c0.3-0.1,0.5-0.3,0.8-0.4c1-0.7,1.5-1.5,1.6-2.3c0.1-0.8-0.1-1.6-0.7-2.4
				l-0.5-0.6l-0.6,0.4c-0.4,0.3-0.8,0.6-1.3,1C64,41.7,63.6,42.1,63.2,42.5z"/>
			<path class="st2" d="M20.3,85.6c-0.6-0.2-1.1-0.2-1.5-0.1c-0.4,0.1-0.8,0.3-1.1,0.7c-0.3,0.3-0.6,0.7-0.8,1.2
				c-0.2,0.4-0.4,0.9-0.5,1.3l-1,3l5.3,1.8l0.9-2.7c0.2-0.5,0.3-1,0.4-1.5c0.1-0.5,0.2-1,0.1-1.5c0-0.5-0.2-0.9-0.5-1.3
				C21.4,86.1,20.9,85.8,20.3,85.6z"/>
			<path class="st2" d="M23.2,160.8c0.8,0.4,1.6,0.5,2.6,0.3l-2.2-6.8c-1,0.3-1.6,0.9-2,1.7c-0.4,0.8-0.4,1.7,0,2.7
				C21.9,159.7,22.4,160.4,23.2,160.8z"/>
			<path class="st2" d="M192.6,40.9c-0.1-0.8-0.6-1.6-1.5-2.3c-0.8-0.6-1.7-0.9-2.5-0.8c-0.8,0.1-1.6,0.5-2.3,1.2l5.7,4.3
				C192.5,42.6,192.8,41.7,192.6,40.9z"/>
			<path class="st2" d="M52.8,48.1c-0.7-0.7-1.5-1.1-2.4-1c-0.9,0-1.7,0.4-2.4,1.2c-0.7,0.7-1.1,1.5-1.1,2.4c0,0.9,0.3,1.7,0.9,2.5
				L52.8,48.1z"/>
			<path class="st2" d="M214.6,180.8l-4,5.9c0.9,0.6,1.7,0.7,2.5,0.6c0.8-0.2,1.6-0.7,2.2-1.6c0.6-0.9,0.8-1.7,0.6-2.6
				C215.8,182.2,215.4,181.5,214.6,180.8z"/>
			<path class="st2" d="M20.4,113.8L36,125.1c0,0,0-0.1,0-0.1c0-45.5,34.4-83.2,78.5-88.4L128.1,18L115.2,0.4C50.8,5.4,0,59.2,0,125
				c0,0,0,0.1,0,0.1l15.6-11.4C17.1,112.7,19,112.7,20.4,113.8z M95.1,9.7l2.3,9.7l0.1,0c0.1-0.6,0.5-1.2,1-1.9
				c0.6-0.6,1.4-1,2.4-1.3c0.9-0.2,1.7-0.2,2.4-0.1c0.7,0.2,1.3,0.4,1.8,0.8c0.5,0.4,0.9,0.9,1.2,1.5c0.3,0.6,0.6,1.2,0.7,1.9l2,8.6
				l-3.4,0.8l-1.6-6.9c-0.1-0.4-0.2-0.8-0.3-1.2c-0.1-0.5-0.3-0.9-0.6-1.2c-0.3-0.4-0.6-0.6-1-0.8c-0.4-0.2-0.9-0.2-1.5-0.1
				c-0.6,0.1-1,0.3-1.4,0.6c-0.3,0.3-0.6,0.6-0.8,1c-0.2,0.4-0.3,0.8-0.3,1.2c0,0.4,0,0.9,0.1,1.3l1.7,7.4l-3.4,0.8l-5-21.4
				L95.1,9.7z M81.2,24.7c0.4-0.8,1-1.6,1.7-2.3c0.7-0.7,1.6-1.2,2.6-1.6c0.8-0.3,1.7-0.5,2.7-0.5c1,0,1.9,0.2,2.8,0.6l-1.3,3.1
				c-0.5-0.2-1.1-0.4-1.6-0.5c-0.5-0.1-1,0-1.4,0.2c-0.6,0.2-1.1,0.6-1.5,1c-0.4,0.4-0.7,0.8-0.9,1.3c-0.2,0.5-0.3,1-0.3,1.5
				c0,0.5,0.1,1.1,0.3,1.6c0.2,0.5,0.5,1,0.8,1.4c0.4,0.4,0.8,0.7,1.2,0.9c0.5,0.2,1,0.4,1.5,0.4c0.6,0,1.1-0.1,1.7-0.3
				c0.5-0.2,0.9-0.5,1.3-0.9c0.3-0.4,0.6-0.8,0.7-1.3l3.1,1.5c-0.2,0.5-0.5,0.9-0.8,1.3c-0.3,0.4-0.7,0.8-1.1,1.1
				c-0.4,0.3-0.7,0.6-1.1,0.8c-0.4,0.2-0.7,0.4-1,0.5c-1,0.4-2,0.6-2.9,0.6c-1,0-1.9-0.1-2.8-0.5c-0.9-0.3-1.6-0.9-2.3-1.5
				c-0.7-0.7-1.3-1.5-1.7-2.6c-0.4-1-0.6-2-0.6-3C80.6,26.4,80.8,25.5,81.2,24.7z M71.8,27.5l1.1,1.9l0.1,0c0-0.9,0.1-1.7,0.5-2.4
				c0.4-0.7,1-1.3,1.8-1.8c0.2-0.1,0.4-0.2,0.6-0.2c0.2-0.1,0.4-0.1,0.6-0.2l1.6,3c-0.3,0.1-0.6,0.2-0.8,0.2
				c-0.3,0.1-0.5,0.2-0.8,0.3c-0.7,0.4-1.2,0.8-1.5,1.3c-0.3,0.5-0.5,1-0.5,1.4c0,0.5,0,0.9,0.1,1.3c0.1,0.4,0.2,0.7,0.3,0.8
				l3.6,6.5l-3.1,1.7l-6.7-12.2L71.8,27.5z M57.2,37.2c0.6-0.9,1.4-1.7,2.3-2.3c0.8-0.6,1.5-1,2.2-1.2c0.7-0.2,1.3-0.3,1.9-0.3
				c0.6,0,1.1,0.1,1.5,0.4c0.5,0.2,0.9,0.5,1.2,0.8c0.4,0.3,0.7,0.6,0.9,1c0.3,0.3,0.5,0.6,0.7,0.9l4.7,6.5l-2.5,1.8L69,43.3
				l-0.1,0.1c0.1,0.9-0.1,1.8-0.5,2.5c-0.4,0.7-1,1.4-1.7,1.9c-0.5,0.4-1.1,0.7-1.7,0.9c-0.6,0.2-1.2,0.3-1.8,0.3
				c-0.6,0-1.2-0.1-1.7-0.4c-0.5-0.3-1-0.7-1.4-1.2c-0.4-0.6-0.7-1.2-0.8-1.8c-0.1-0.6-0.1-1.2,0.1-1.7c0.2-0.6,0.4-1.1,0.8-1.6
				c0.4-0.5,0.8-1,1.2-1.5c0.5-0.5,0.9-0.9,1.5-1.3c0.5-0.4,1-0.8,1.5-1.1l0.7-0.5l-0.2-0.3c-0.5-0.7-1.1-1.1-1.9-1.1
				c-0.7,0-1.5,0.3-2.2,0.8c-0.6,0.4-1.1,0.9-1.4,1.5c-0.4,0.6-0.6,1.2-0.7,1.8L56,40.2C56.2,39.1,56.5,38.1,57.2,37.2z M44.7,48.5
				c0.4-0.9,1-1.7,1.7-2.5c0.7-0.7,1.4-1.2,2.2-1.5c0.8-0.3,1.6-0.5,2.5-0.4c0.9,0,1.7,0.3,2.6,0.7c0.9,0.4,1.8,1.1,2.6,1.9l0.7,0.7
				L49.6,55c0.8,0.7,1.7,0.9,2.6,0.9c0.9-0.1,1.7-0.5,2.4-1.2c0.6-0.6,1-1.3,1.2-1.9c0.2-0.7,0.2-1.4,0.1-2.1l3.1-0.4
				c0.1,1.3,0,2.4-0.4,3.4c-0.4,1-1,1.9-1.8,2.7c-0.7,0.7-1.6,1.3-2.5,1.7c-0.9,0.4-1.8,0.6-2.7,0.7c-0.9,0-1.9-0.1-2.8-0.5
				c-0.9-0.4-1.8-0.9-2.5-1.7c-0.8-0.8-1.4-1.6-1.7-2.5c-0.4-0.9-0.5-1.8-0.5-2.8C44.1,50.3,44.3,49.4,44.7,48.5z M34.8,60.1
				c0.3-0.6,0.6-1.2,1-1.8c0.6-0.7,1.2-1.4,2-1.9c0.8-0.5,1.7-0.8,2.6-0.8l0.3,3.1c-1.2,0-2.1,0.4-2.8,1.3c-0.3,0.4-0.5,0.8-0.5,1.3
				c-0.1,0.5,0.1,0.9,0.5,1.2c0.3,0.3,0.7,0.3,1.1,0.1c0.4-0.2,0.8-0.5,1.2-0.8c0.4-0.4,0.9-0.8,1.4-1.2c0.5-0.4,1-0.8,1.6-1.1
				c0.6-0.3,1.2-0.4,1.8-0.4c0.6,0,1.3,0.3,2.1,0.8c0.7,0.5,1.1,1.1,1.4,1.7c0.2,0.6,0.3,1.3,0.3,1.9c-0.1,0.7-0.2,1.3-0.5,2
				c-0.3,0.7-0.7,1.3-1.1,1.9c-0.6,0.9-1.4,1.6-2.2,2.1c-0.8,0.5-1.7,0.9-2.8,1l-0.4-3.2c0.7-0.1,1.3-0.2,1.8-0.4
				c0.6-0.2,1.1-0.6,1.5-1.2c0.2-0.2,0.3-0.4,0.4-0.7c0.1-0.3,0.2-0.5,0.2-0.8c0-0.3,0-0.5-0.1-0.8c-0.1-0.2-0.2-0.4-0.4-0.6
				c-0.4-0.3-0.8-0.4-1.2-0.2c-0.4,0.2-0.8,0.4-1.3,0.8c-0.5,0.4-0.9,0.8-1.4,1.2c-0.5,0.4-1,0.8-1.6,1.1c-0.6,0.3-1.2,0.4-1.8,0.4
				c-0.6,0-1.3-0.3-2-0.8c-0.6-0.5-1.1-1-1.3-1.6c-0.3-0.6-0.4-1.2-0.4-1.9C34.3,61.4,34.5,60.8,34.8,60.1z M26.2,74.6
				c0.1-1,0.4-1.9,0.9-2.9c0.5-0.8,1-1.5,1.7-2.1c0.7-0.5,1.4-0.9,2.3-1.1c0.8-0.2,1.7-0.2,2.7-0.1c1,0.2,2,0.5,3.1,1.1l0.8,0.5
				l-5,9.3c1,0.4,1.9,0.4,2.7,0.1c0.8-0.3,1.5-0.9,2-1.8c0.4-0.8,0.6-1.5,0.6-2.2c0-0.7-0.2-1.4-0.4-2l2.8-1.3
				c0.5,1.2,0.7,2.3,0.6,3.4c-0.1,1.1-0.4,2.1-0.9,3.1c-0.5,0.9-1.1,1.7-1.9,2.4c-0.7,0.7-1.6,1.1-2.4,1.4c-0.9,0.3-1.8,0.4-2.8,0.3
				c-1-0.1-2-0.4-2.9-0.9c-1-0.5-1.8-1.2-2.4-1.9c-0.6-0.8-1-1.6-1.3-2.5C26.1,76.5,26.1,75.5,26.2,74.6z M13.5,87.3
				c0.3-0.9,0.7-1.8,1.2-2.6c0.5-0.8,1-1.5,1.7-2c0.6-0.5,1.4-0.9,2.2-1.1c0.8-0.2,1.8-0.1,2.9,0.3c1.4,0.5,2.5,1.3,3.2,2.4
				c0.7,1.1,0.9,2.4,0.6,3.9l10.3-2.3l-1.4,4.2l-9.8,1.7l-0.8,2.5l8.2,2.8l-1.2,3.5l-19.5-6.5L13.5,87.3z"/>
			<path class="st2" d="M136.2,20.4L124.9,36c0,0,0.1,0,0.1,0c45.5,0,83.2,34.4,88.4,78.5l18.6,13.5l17.6-12.8
				C244.6,50.8,190.8,0,125,0c0,0-0.1,0-0.1,0l11.4,15.6C137.3,17,137.3,19,136.2,20.4z M227.2,81.4l-2.1,0.8l0,0.1
				c0.8,0,1.5,0.3,2.2,0.7c0.7,0.4,1.3,1.2,1.7,2.3c0.3,0.9,0.5,1.7,0.4,2.4c0,0.7-0.2,1.4-0.6,1.9c-0.3,0.6-0.8,1-1.3,1.4
				c-0.5,0.4-1.2,0.7-1.8,1l-8.2,3.2l-1.3-3.2l6.6-2.6c0.4-0.1,0.8-0.3,1.2-0.5c0.4-0.2,0.8-0.5,1.1-0.8c0.3-0.3,0.6-0.7,0.7-1.1
				c0.1-0.4,0.1-0.9-0.1-1.5c-0.2-0.5-0.5-1-0.8-1.3c-0.3-0.3-0.7-0.5-1.1-0.6c-0.4-0.1-0.8-0.2-1.3-0.1c-0.4,0-0.9,0.2-1.3,0.3
				l-7.1,2.8l-1.3-3.2l12.9-5.1L227.2,81.4z M219.6,66.2c0.5,0.8,0.8,1.7,0.9,2.7c0.1,0.9-0.1,1.8-0.5,2.7l0,0l1.8-1.1l1.7,2.8
				L212.8,80c-1.1,0.7-2.1,1.1-3.1,1.4c-1,0.3-2,0.3-3,0.1c-0.9-0.2-1.8-0.6-2.7-1.2c-0.8-0.6-1.6-1.5-2.3-2.7
				c-0.7-1.1-1.2-2.2-1.5-3.4c-0.3-1.2-0.4-2.4-0.1-3.7l3.5,0.3c-0.2,0.9-0.2,1.8-0.1,2.6c0.1,0.8,0.4,1.7,0.9,2.5
				c0.4,0.7,0.9,1.2,1.4,1.6c0.5,0.4,1,0.6,1.5,0.7c0.5,0.1,1.1,0,1.6-0.1c0.6-0.2,1.1-0.4,1.7-0.8l0.9-0.5l0,0
				c-0.8-0.1-1.6-0.4-2.3-0.9c-0.7-0.5-1.3-1.2-1.8-1.9c-0.5-0.9-0.9-1.8-1-2.7c-0.1-0.9-0.1-1.8,0.2-2.7c0.2-0.9,0.6-1.6,1.2-2.4
				c0.6-0.7,1.3-1.4,2.1-1.9c0.9-0.5,1.8-0.9,2.7-1.1c0.9-0.2,1.8-0.2,2.7,0c0.9,0.2,1.7,0.5,2.5,1
				C218.4,64.6,219.1,65.3,219.6,66.2z M213.4,52.5c0.1-0.6,0.3-1,0.8-1.4c0.4-0.4,0.9-0.5,1.5-0.4s1.1,0.3,1.5,0.8
				c0.4,0.5,0.6,1,0.5,1.6c0,0.6-0.3,1.1-0.8,1.4c-0.5,0.4-1,0.5-1.6,0.4c-0.6-0.1-1.1-0.4-1.5-0.9
				C213.5,53.6,213.3,53.1,213.4,52.5z M212.9,57.1L202,65.8l-2.2-2.7l10.9-8.7L212.9,57.1z M199.2,54.9c-0.1-0.4-0.3-0.9-0.6-1.4
				c-0.3-0.5-0.6-1-1-1.6c-0.4-0.6-0.6-1.1-0.8-1.7c-0.2-0.6-0.2-1.2-0.1-1.8c0.1-0.6,0.5-1.2,1.1-1.9c0.6-0.5,1.1-0.9,1.8-1.1
				c0.6-0.2,1.3-0.2,1.9-0.1c0.6,0.1,1.2,0.4,1.8,0.7c0.6,0.4,1.1,0.8,1.6,1.3c0.6,0.7,1.2,1.4,1.6,2.3c0.4,0.9,0.5,1.8,0.4,2.7
				l-3.1-0.2c0.2-1.1-0.1-2.1-0.9-2.9c-0.3-0.3-0.7-0.6-1.2-0.7c-0.5-0.2-0.9-0.1-1.3,0.3c-0.3,0.3-0.4,0.6-0.3,1
				c0.1,0.4,0.3,0.8,0.6,1.3c0.3,0.5,0.6,1,1,1.6c0.3,0.6,0.6,1.2,0.8,1.8c0.2,0.6,0.2,1.2,0.1,1.9c-0.1,0.6-0.5,1.3-1.2,1.9
				c-0.6,0.6-1.2,0.9-1.9,1.1c-0.7,0.1-1.3,0.1-2,0c-0.6-0.2-1.3-0.5-1.9-0.9c-0.6-0.4-1.2-0.9-1.7-1.4c-0.8-0.8-1.3-1.6-1.8-2.5
				c-0.4-0.9-0.6-1.8-0.5-2.9L195,52c-0.1,0.7,0,1.3,0.1,1.9c0.1,0.6,0.5,1.1,1,1.7c0.2,0.2,0.4,0.3,0.6,0.5
				c0.2,0.2,0.5,0.3,0.7,0.3c0.3,0.1,0.5,0.1,0.8,0.1c0.2,0,0.5-0.2,0.7-0.3C199.2,55.7,199.3,55.4,199.2,54.9z M185,36
				c0.9-0.5,1.8-0.8,2.7-0.9c0.9-0.1,1.9,0,2.8,0.3c0.9,0.3,1.8,0.8,2.7,1.4c0.8,0.6,1.4,1.3,1.8,2c0.4,0.8,0.7,1.6,0.7,2.4
				c0.1,0.9-0.1,1.7-0.4,2.7c-0.3,0.9-0.8,1.9-1.6,2.9l-0.6,0.8l-8.4-6.5c-0.5,0.9-0.7,1.8-0.5,2.7c0.2,0.9,0.7,1.6,1.5,2.2
				c0.7,0.5,1.4,0.8,2.1,0.9c0.7,0.1,1.4,0,2.1-0.1l0.8,3c-1.3,0.3-2.4,0.3-3.5,0c-1.1-0.3-2-0.7-2.9-1.4c-0.8-0.6-1.5-1.4-2-2.2
				c-0.5-0.8-0.9-1.7-1-2.6c-0.1-0.9-0.1-1.9,0.1-2.8c0.2-1,0.7-1.9,1.4-2.7C183.3,37.2,184.1,36.5,185,36z M169.9,15.9l7.2,3.6
				c1.2,0.6,2.3,1.4,3.2,2.3c0.9,0.9,1.6,2,2.1,3.2c0.5,1.2,0.7,2.5,0.6,3.9c-0.1,1.4-0.5,2.9-1.3,4.4c-0.8,1.6-1.8,2.8-2.9,3.6
				c-1.2,0.9-2.4,1.4-3.7,1.7c-1.3,0.3-2.6,0.3-4,0.1c-1.3-0.2-2.6-0.6-3.7-1.1l-6.8-3.4L169.9,15.9z"/>
			<path class="st2" d="M125,250c0,0,0.1,0,0.1,0l-11.4-15.6c-1-1.4-1-3.3,0-4.7l11.4-15.6c0,0-0.1,0-0.1,0
				c-45.5,0-83.2-34.4-88.4-78.5L18,121.9L0.4,134.8C5.4,199.2,59.2,250,125,250z M52.6,215.3c-0.4,0.4-0.8,0.7-1.4,0.7
				c-0.6,0.1-1.1-0.1-1.6-0.5c-0.5-0.4-0.8-0.9-0.9-1.5c-0.1-0.6,0.1-1.1,0.5-1.6c0.4-0.5,0.9-0.7,1.5-0.7c0.6,0,1.1,0.2,1.6,0.6
				c0.5,0.4,0.8,0.9,0.8,1.5C53.1,214.4,52.9,214.9,52.6,215.3z M93,216.7l0.5,22.1l-3.9-1.5l0.1-16.5l-10.8,12.6l-3.7-1.4
				l14.9-16.4L93,216.7z M75.2,208.5l-0.9,1.7l0.1,0c0.8-0.4,1.7-0.6,2.5-0.6c0.8,0.1,1.7,0.3,2.5,0.8c0.6,0.3,1.1,0.7,1.5,1.1
				c0.4,0.4,0.8,0.9,1,1.5c0.2,0.5,0.4,1.1,0.4,1.7c0,0.6-0.2,1.2-0.5,1.8c-0.4,0.7-0.8,1.2-1.3,1.5c-0.5,0.3-1,0.5-1.6,0.6
				c-0.6,0.1-1.2,0.1-1.8,0c-0.6-0.1-1.2-0.3-1.9-0.5c-0.6-0.2-1.2-0.5-1.8-0.8c-0.6-0.3-1.1-0.6-1.6-0.9L71,216l-0.2,0.3
				c-0.4,0.8-0.5,1.5-0.2,2.1c0.3,0.7,0.9,1.2,1.7,1.7c0.6,0.4,1.3,0.6,2,0.7c0.7,0.1,1.3,0,2-0.1l0.7,2.5c-1.1,0.3-2.1,0.4-3.2,0.2
				c-1.1-0.2-2.1-0.6-3.1-1.1c-0.9-0.5-1.5-1-2-1.5c-0.5-0.5-0.8-1-1.1-1.6c-0.2-0.5-0.3-1-0.3-1.6c0-0.5,0.1-1,0.2-1.5
				c0.1-0.5,0.3-0.9,0.5-1.3c0.2-0.4,0.4-0.7,0.5-1l3.9-7L75.2,208.5z M69.9,205l-12.8,17.8l-2.8-2L67.1,203L69.9,205z M64.1,200.7
				l-8.9,10.7l-2.7-2.2l8.9-10.7L64.1,200.7z M20.3,161.7c-0.6-0.8-1.1-1.7-1.4-2.6c-0.3-0.9-0.4-1.8-0.3-2.7
				c0.1-0.9,0.3-1.7,0.8-2.4c0.4-0.7,1-1.4,1.8-2c0.8-0.6,1.8-1.1,2.9-1.5l0.9-0.3l3.3,10.1c1-0.4,1.6-1.1,1.9-1.9
				c0.3-0.8,0.3-1.7,0-2.7c-0.3-0.8-0.7-1.5-1.2-1.9c-0.5-0.4-1.1-0.8-1.8-1.1l1-3c1.2,0.5,2.2,1.1,2.9,1.9c0.7,0.8,1.2,1.8,1.6,2.8
				c0.3,1,0.5,2,0.4,3c0,1-0.3,1.9-0.7,2.7c-0.4,0.8-1,1.6-1.7,2.2c-0.7,0.7-1.6,1.2-2.7,1.5c-1,0.3-2.1,0.5-3,0.4
				c-1-0.1-1.9-0.4-2.7-0.8C21.7,163.1,21,162.5,20.3,161.7z M27.4,178.3l-1.3-2.6l-3.6,1.8l-1.5-3.1l3.6-1.8l-1.7-3.4l2.7-1.3
				l1.7,3.4l5.5-2.7c0.6-0.3,1.1-0.7,1.3-1.1c0.3-0.4,0.2-1-0.1-1.7c-0.1-0.3-0.3-0.6-0.5-0.9c-0.2-0.3-0.4-0.5-0.7-0.6l2.6-1.3
				c0.3,0.3,0.6,0.6,0.9,1.1c0.3,0.4,0.5,0.9,0.7,1.2c0.4,0.8,0.6,1.6,0.7,2.2c0.1,0.6,0,1.2-0.2,1.7c-0.2,0.5-0.6,0.9-1.1,1.3
				c-0.5,0.4-1.1,0.8-1.8,1.1l-5.7,2.8l1.3,2.6L27.4,178.3z M30.9,184.1c-0.2-0.7-0.3-1.3-0.2-1.9c0-0.6,0.2-1.1,0.4-1.5
				c0.2-0.5,0.5-0.9,0.9-1.2c0.3-0.3,0.7-0.6,1-0.9c0.4-0.3,0.7-0.5,0.9-0.7l6.7-4.4l1.7,2.6l-1.6,1.1l0,0.1c0.9,0,1.8,0.2,2.5,0.6
				c0.7,0.4,1.3,1.1,1.9,1.8c0.4,0.5,0.6,1.1,0.8,1.7c0.2,0.6,0.3,1.2,0.2,1.8c0,0.6-0.2,1.1-0.5,1.7c-0.3,0.5-0.7,1-1.3,1.4
				c-0.6,0.4-1.2,0.7-1.8,0.7c-0.6,0.1-1.2,0-1.7-0.2c-0.5-0.2-1.1-0.5-1.6-0.8c-0.5-0.4-1-0.8-1.4-1.3c-0.4-0.5-0.9-1-1.2-1.5
				c-0.4-0.5-0.7-1-1.1-1.5l-0.5-0.7l-0.3,0.2c-0.7,0.5-1.1,1.1-1.1,1.8c0,0.7,0.2,1.5,0.7,2.3c0.4,0.6,0.9,1.1,1.5,1.5
				c0.6,0.4,1.2,0.7,1.8,0.8l-0.5,2.5c-1.1-0.2-2.1-0.6-2.9-1.3c-0.9-0.7-1.6-1.5-2.2-2.4C31.5,185.5,31.1,184.8,30.9,184.1z
				 M33,200.8L49,185.9l2.3,2.4l-1.5,1.4l0,0c1-0.2,1.9-0.1,2.7,0.2c0.9,0.4,1.6,0.9,2.3,1.6c0.7,0.8,1.3,1.6,1.6,2.5
				c0.3,0.9,0.4,1.8,0.3,2.6c-0.1,0.9-0.3,1.7-0.8,2.6c-0.4,0.8-1,1.6-1.8,2.3c-0.8,0.7-1.6,1.2-2.4,1.6c-0.9,0.4-1.8,0.6-2.6,0.6
				c-0.9,0-1.7-0.2-2.6-0.5c-0.8-0.4-1.6-0.9-2.3-1.6c-0.4-0.5-0.8-1-1-1.4c-0.2-0.5-0.4-0.9-0.5-1.3c-0.1-0.4-0.2-0.8-0.2-1.2
				c0-0.4,0-0.7,0.1-1l-0.1-0.1l-7.2,6.7L33,200.8z"/>
			<path class="st2" d="M232,137c-0.8,0-1.7-0.3-2.4-0.8L214,124.9c0,0,0,0.1,0,0.1c0,45.5-34.4,83.2-78.5,88.4L121.9,232l12.8,17.6
				c64.5-5,115.2-58.9,115.2-124.6c0,0,0-0.1,0-0.1l-15.6,11.4C233.7,136.7,232.8,137,232,137z M156.4,231.6l-0.5-2l-0.1,0
				c-0.3,0.9-0.8,1.7-1.5,2.3c-0.7,0.6-1.6,1-2.5,1.2c-1,0.3-2,0.3-2.9,0.2c-0.9-0.2-1.7-0.5-2.5-1c-0.7-0.5-1.4-1.1-1.9-1.9
				c-0.5-0.8-0.9-1.7-1.2-2.7c-0.3-1-0.3-2-0.2-2.9c0.1-0.9,0.4-1.8,0.8-2.6c0.4-0.8,1-1.5,1.7-2c0.7-0.6,1.5-1,2.5-1.2
				c0.6-0.2,1.2-0.2,1.7-0.2c0.5,0,1,0.1,1.4,0.2c0.4,0.1,0.8,0.2,1.1,0.4c0.3,0.2,0.6,0.3,0.8,0.5l0.1,0l-2.1-8.1l3.4-0.9l5.1,19.9
				L156.4,231.6z M175.2,222.3c-0.3,0.9-0.9,1.6-1.6,2.3c-0.7,0.7-1.5,1.3-2.5,1.7c-0.9,0.4-1.9,0.7-2.9,0.8c-1,0.1-1.9,0-2.8-0.3
				c-0.9-0.3-1.7-0.8-2.4-1.4c-0.7-0.7-1.3-1.5-1.8-2.5c-0.5-1-0.7-2-0.7-3c0-1,0.2-1.9,0.5-2.8c0.4-0.9,0.9-1.6,1.6-2.3
				c0.7-0.7,1.5-1.3,2.5-1.7c0.9-0.4,1.9-0.7,2.9-0.8c1-0.1,1.9,0,2.8,0.3c0.9,0.3,1.7,0.8,2.4,1.4c0.7,0.7,1.3,1.5,1.8,2.5
				c0.5,1,0.7,2,0.7,3C175.8,220.5,175.6,221.5,175.2,222.3z M185.9,227.3l-11.5-18.7l3-1.8l11.5,18.7L185.9,227.3z M196.7,207.8
				c-0.1,0.9-0.5,1.8-1,2.7c-0.5,0.8-1.2,1.6-2,2.2c-0.8,0.6-1.6,1-2.4,1.2c-0.8,0.2-1.7,0.3-2.5,0.1c-0.8-0.1-1.7-0.5-2.5-1
				c-0.8-0.5-1.6-1.3-2.4-2.2l-0.6-0.8l8.3-6.6c-0.7-0.7-1.6-1.1-2.5-1.2c-0.9,0-1.7,0.3-2.5,0.9c-0.7,0.5-1.1,1.1-1.4,1.8
				c-0.2,0.6-0.4,1.3-0.4,2l-3.1,0.1c0-1.3,0.3-2.4,0.8-3.4c0.5-1,1.2-1.8,2.1-2.5c0.8-0.6,1.7-1.1,2.6-1.4c0.9-0.3,1.9-0.4,2.8-0.3
				c0.9,0.1,1.8,0.3,2.7,0.8c0.9,0.5,1.6,1.1,2.3,2c0.7,0.9,1.2,1.8,1.4,2.7C196.8,205.9,196.8,206.8,196.7,207.8z M209,197.7
				l-9.7-3.9l0,0l4.6,9.4l-2.4,2.6l-6.5-13.5l2.5-2.7l14.1,5.3L209,197.7z M218.4,184.7c-0.2,1-0.6,1.9-1.2,2.7
				c-0.5,0.8-1.2,1.4-1.9,1.9c-0.7,0.5-1.5,0.8-2.4,0.9c-0.8,0.1-1.7,0-2.7-0.2c-1-0.3-1.9-0.7-3-1.4l-0.8-0.5l5.9-8.8
				c-0.9-0.5-1.8-0.6-2.7-0.3c-0.9,0.3-1.6,0.8-2.1,1.6c-0.5,0.7-0.7,1.4-0.8,2.1c0,0.7,0.1,1.4,0.3,2l-3,1
				c-0.4-1.2-0.5-2.4-0.3-3.5c0.2-1.1,0.6-2.1,1.2-3c0.6-0.9,1.3-1.6,2.1-2.2c0.8-0.6,1.7-1,2.6-1.2c0.9-0.2,1.8-0.2,2.8,0
				c1,0.2,1.9,0.6,2.8,1.2c0.9,0.6,1.6,1.3,2.2,2.2c0.5,0.8,0.9,1.7,1,2.6C218.7,182.8,218.7,183.8,218.4,184.7z M233.6,170.4
				c-0.5,1.2-1.2,2.4-2.1,3.4c-0.9,1-1.9,1.8-3.1,2.3c-1.2,0.6-2.4,0.9-3.9,0.9c-1.4,0-2.9-0.3-4.5-1c-1.6-0.7-2.9-1.6-3.8-2.7
				c-0.9-1.1-1.6-2.3-1.9-3.6c-0.4-1.3-0.5-2.6-0.4-4c0.1-1.3,0.4-2.6,0.9-3.7l3-7l18.9,8L233.6,170.4z"/>
			<path class="st2" d="M187.7,209.9c0.7,0.8,1.4,1.2,2.3,1.3c0.9,0.1,1.7-0.2,2.6-0.9c0.8-0.6,1.3-1.4,1.4-2.2
				c0.1-0.8-0.1-1.7-0.6-2.6L187.7,209.9z"/>
			<path class="st2" d="M217.5,168.2c0.2,0.9,0.6,1.7,1.3,2.5c0.6,0.7,1.5,1.4,2.7,1.9c1.1,0.5,2.2,0.7,3.2,0.7c1,0,1.8-0.2,2.6-0.6
				c0.8-0.4,1.5-1,2.1-1.8c0.6-0.8,1.1-1.7,1.6-2.7l1.3-3.1l-12.8-5.4l-1.1,2.5c-0.4,1-0.7,2.1-0.9,3.1
				C217.3,166.3,217.3,167.2,217.5,168.2z"/>
			<path class="st2" d="M171,216.7c-0.4-0.4-0.8-0.7-1.3-0.9c-0.5-0.2-1-0.3-1.6-0.3c-0.6,0-1.1,0.1-1.7,0.4c-0.6,0.3-1.1,0.6-1.4,1
				c-0.4,0.4-0.6,0.9-0.8,1.4c-0.2,0.5-0.2,1-0.2,1.6c0,0.5,0.2,1,0.4,1.5c0.2,0.5,0.5,0.9,0.9,1.3c0.4,0.4,0.8,0.7,1.3,0.9
				c0.5,0.2,1,0.3,1.6,0.3c0.6,0,1.1-0.1,1.7-0.4c0.6-0.3,1.1-0.6,1.4-1c0.4-0.4,0.6-0.9,0.8-1.4c0.2-0.5,0.2-1,0.2-1.6
				c0-0.5-0.2-1-0.4-1.5C171.7,217.5,171.4,217.1,171,216.7z"/>
		</g>
	</g>
	<g id="text">
	</g>
</g>
<g id="Layer_2">
</g>
</svg>
